<svg xmlns="http://www.w3.org/2000/svg" xmlns:xlink="http://www.w3.org/1999/xlink" width="500" zoomAndPan="magnify" viewBox="0 0 375 374.999991" height="500" preserveAspectRatio="xMidYMid meet" version="1.2"><defs><clipPath id="73529c04f2"><path d="M 0.078125 29 L 60 29 L 60 92 L 0.078125 92 Z M 0.078125 29 "/></clipPath><clipPath id="6cf00cb32a"><path d="M 256 29 L 326.238281 29 L 326.238281 92 L 256 92 Z M 256 29 "/></clipPath><clipPath id="5dae85cde1"><rect x="0" width="327" y="0" height="122"/></clipPath><clipPath id="28655fd4d1"><rect x="0" width="324" y="0" height="71"/></clipPath><clipPath id="d8f435e4d2"><path d="M 76.992188 123.753906 L 94.738281 123.753906 L 94.738281 201.425781 L 76.992188 201.425781 Z M 76.992188 123.753906 "/></clipPath><clipPath id="eff660139a"><path d="M 78.777344 123.753906 L 94.738281 123.753906 L 94.738281 201.425781 L 78.777344 201.425781 Z M 78.777344 123.753906 "/></clipPath><clipPath id="5fe27b22f4"><path d="M 77 104.726562 L 94.984375 104.726562 L 94.984375 196 L 77 196 Z M 77 104.726562 "/></clipPath><clipPath id="53352a9383"><path d="M 78.777344 139.214844 L 94.738281 139.214844 L 94.738281 195.703125 L 78.777344 195.703125 Z M 78.777344 139.214844 "/></clipPath><clipPath id="07dfddfe1d"><path d="M 86 104.726562 L 87 104.726562 L 87 124 L 86 124 Z M 86 104.726562 "/></clipPath><clipPath id="a2fd6fb3f0"><path d="M 224 6 L 237.28125 6 L 237.28125 19 L 224 19 Z M 224 6 "/></clipPath><clipPath id="b6817f5fb0"><rect x="0" width="238" y="0" height="26"/></clipPath></defs><g id="733a63b119"><g transform="matrix(1,0,0,1,22,110)"><g clip-path="url(#5dae85cde1)"><g clip-rule="nonzero" clip-path="url(#73529c04f2)"><g style="fill:#ebebeb;fill-opacity:1;"><g transform="translate(0.198981, 91.071486)"><path style="stroke:none" d="M 59.203125 -45.21875 C 58.566406 -41.65625 57.097656 -38.648438 54.796875 -36.203125 C 52.492188 -33.753906 49.734375 -32.128906 46.515625 -31.328125 C 49.503906 -30.578125 51.789062 -29.148438 53.375 -27.046875 C 54.957031 -24.953125 55.75 -22.492188 55.75 -19.671875 C 55.75 -18.753906 55.660156 -17.773438 55.484375 -16.734375 C 54.566406 -11.390625 52.078125 -7.265625 48.015625 -4.359375 C 43.960938 -1.453125 38.628906 0 32.015625 0 L 0 0 L 10.78125 -61.09375 L 41.9375 -61.09375 C 47.457031 -61.09375 51.753906 -60.015625 54.828125 -57.859375 C 57.910156 -55.703125 59.453125 -52.550781 59.453125 -48.40625 C 59.453125 -47.4375 59.367188 -46.375 59.203125 -45.21875 Z M 39 -41.515625 C 39.0625 -41.796875 39.09375 -42.164062 39.09375 -42.625 C 39.09375 -43.78125 38.734375 -44.613281 38.015625 -45.125 C 37.296875 -45.644531 36.1875 -45.90625 34.6875 -45.90625 L 27.265625 -45.90625 L 25.71875 -37.28125 L 33.140625 -37.28125 C 34.867188 -37.28125 36.21875 -37.625 37.1875 -38.3125 C 38.164062 -39 38.769531 -40.066406 39 -41.515625 Z M 36.421875 -19.59375 C 36.472656 -19.875 36.5 -20.25 36.5 -20.71875 C 36.5 -22.894531 35.035156 -23.984375 32.109375 -23.984375 L 23.390625 -23.984375 L 21.921875 -15.359375 L 30.640625 -15.359375 C 32.359375 -15.359375 33.691406 -15.6875 34.640625 -16.34375 C 35.597656 -17.007812 36.191406 -18.09375 36.421875 -19.59375 Z M 36.421875 -19.59375 "/></g></g></g><g style="fill:#ebebeb;fill-opacity:1;"><g transform="translate(55.686336, 91.071486)"><path style="stroke:none" d="M 29.9375 -61.09375 L 19.15625 0 L 0 0 L 10.78125 -61.09375 Z M 29.9375 -61.09375 "/></g></g><g style="fill:#ebebeb;fill-opacity:1;"><g transform="translate(79.934939, 91.071486)"><path style="stroke:none" d="M 23.90625 -15.28125 L 48.40625 -15.28125 L 45.734375 0 L 0 0 L 2.59375 -14.40625 L 32.28125 -45.90625 L 8.109375 -45.90625 L 10.78125 -61.09375 L 56.53125 -61.09375 L 54.015625 -46.6875 Z M 23.90625 -15.28125 "/></g></g><g style="fill:#ebebeb;fill-opacity:1;"><g transform="translate(130.762378, 91.071486)"><path style="stroke:none" d="M 3.703125 -30.640625 C 4.742188 -36.679688 6.90625 -42.054688 10.1875 -46.765625 C 13.46875 -51.484375 17.609375 -55.148438 22.609375 -57.765625 C 27.617188 -60.390625 33.195312 -61.703125 39.34375 -61.703125 C 44.644531 -61.703125 49.207031 -60.707031 53.03125 -58.71875 C 56.851562 -56.738281 59.769531 -53.9375 61.78125 -50.3125 C 63.800781 -46.6875 64.78125 -42.457031 64.71875 -37.625 L 44.53125 -37.625 C 43.957031 -39.632812 42.921875 -41.203125 41.421875 -42.328125 C 39.921875 -43.453125 38.082031 -44.015625 35.90625 -44.015625 C 32.675781 -44.015625 29.910156 -42.804688 27.609375 -40.390625 C 25.304688 -37.972656 23.8125 -34.722656 23.125 -30.640625 C 22.894531 -29.484375 22.78125 -28.242188 22.78125 -26.921875 C 22.78125 -23.929688 23.515625 -21.570312 24.984375 -19.84375 C 26.453125 -18.125 28.535156 -17.265625 31.234375 -17.265625 C 33.421875 -17.265625 35.460938 -17.820312 37.359375 -18.9375 C 39.265625 -20.0625 40.847656 -21.628906 42.109375 -23.640625 L 62.3125 -23.640625 C 60.582031 -18.804688 58.078125 -14.578125 54.796875 -10.953125 C 51.515625 -7.328125 47.613281 -4.519531 43.09375 -2.53125 C 38.582031 -0.550781 33.679688 0.4375 28.390625 0.4375 C 23.035156 0.4375 18.457031 -0.550781 14.65625 -2.53125 C 10.863281 -4.519531 7.988281 -7.34375 6.03125 -11 C 4.082031 -14.65625 3.109375 -18.898438 3.109375 -23.734375 C 3.109375 -26.085938 3.304688 -28.390625 3.703125 -30.640625 Z M 3.703125 -30.640625 "/></g></g><g style="fill:#ebebeb;fill-opacity:1;"><g transform="translate(192.204085, 91.071486)"><path style="stroke:none" d="M 29.9375 0.609375 C 24.757812 0.609375 20.210938 -0.453125 16.296875 -2.578125 C 12.390625 -4.710938 9.375 -7.722656 7.25 -11.609375 C 5.125 -15.492188 4.0625 -19.9375 4.0625 -24.9375 C 4.0625 -32.25 5.566406 -38.707031 8.578125 -44.3125 C 11.597656 -49.925781 15.828125 -54.300781 21.265625 -57.4375 C 26.703125 -60.570312 32.960938 -62.140625 40.046875 -62.140625 C 45.335938 -62.140625 49.953125 -61.085938 53.890625 -58.984375 C 57.828125 -56.878906 60.859375 -53.914062 62.984375 -50.09375 C 65.117188 -46.269531 66.1875 -41.851562 66.1875 -36.84375 C 66.1875 -29.59375 64.675781 -23.117188 61.65625 -17.421875 C 58.632812 -11.734375 54.375 -7.304688 48.875 -4.140625 C 43.382812 -0.972656 37.070312 0.609375 29.9375 0.609375 Z M 32.875 -17.265625 C 35.863281 -17.265625 38.46875 -18.050781 40.6875 -19.625 C 42.90625 -21.207031 44.585938 -23.304688 45.734375 -25.921875 C 46.890625 -28.546875 47.46875 -31.382812 47.46875 -34.4375 C 47.46875 -37.59375 46.617188 -40.046875 44.921875 -41.796875 C 43.222656 -43.554688 40.789062 -44.4375 37.625 -44.4375 C 34.632812 -44.4375 32.015625 -43.660156 29.765625 -42.109375 C 27.523438 -40.554688 25.816406 -38.472656 24.640625 -35.859375 C 23.460938 -33.242188 22.875 -30.410156 22.875 -27.359375 C 22.875 -24.191406 23.71875 -21.71875 25.40625 -19.9375 C 27.101562 -18.15625 29.59375 -17.265625 32.875 -17.265625 Z M 32.875 -17.265625 "/></g></g><g clip-rule="nonzero" clip-path="url(#6cf00cb32a)"><g style="fill:#ebebeb;fill-opacity:1;"><g transform="translate(256.666114, 91.071486)"><path style="stroke:none" d="M 58.59375 0 L 39.4375 0 L 24.59375 -30.71875 L 19.15625 0 L 0 0 L 10.78125 -61.09375 L 29.9375 -61.09375 L 44.703125 -29.859375 L 50.21875 -61.09375 L 69.375 -61.09375 Z M 58.59375 0 "/></g></g></g></g></g><g transform="matrix(1,0,0,1,19,208)"><g clip-path="url(#28655fd4d1)"><g style="fill:#f18b27;fill-opacity:1;"><g transform="translate(0.25956, 50.229165)"><path style="stroke:none" d="M 3.359375 -46.1875 L 16.734375 -46.1875 C 23.160156 -46.1875 28.648438 -43.992188 33.203125 -39.609375 C 37.753906 -35.222656 40.03125 -29.726562 40.03125 -23.125 C 40.03125 -16.476562 37.757812 -10.960938 33.21875 -6.578125 C 28.6875 -2.191406 23.191406 0 16.734375 0 L 3.359375 0 Z M 13.890625 -9.40625 L 15.5 -9.40625 C 19.351562 -9.40625 22.5 -10.703125 24.9375 -13.296875 C 27.382812 -15.890625 28.625 -19.144531 28.65625 -23.0625 C 28.65625 -26.976562 27.429688 -30.242188 24.984375 -32.859375 C 22.546875 -35.472656 19.382812 -36.78125 15.5 -36.78125 L 13.890625 -36.78125 Z M 13.890625 -9.40625 "/></g></g><g style="fill:#f18b27;fill-opacity:1;"><g transform="translate(37.759719, 50.229165)"><path style="stroke:none" d="M 38.859375 -46.1875 L 38.859375 -16.40625 C 38.859375 -10.726562 37.328125 -6.429688 34.265625 -3.515625 C 31.203125 -0.609375 26.722656 0.84375 20.828125 0.84375 C 14.929688 0.84375 10.453125 -0.609375 7.390625 -3.515625 C 4.328125 -6.429688 2.796875 -10.726562 2.796875 -16.40625 L 2.796875 -46.1875 L 13.328125 -46.1875 L 13.328125 -19.484375 C 13.328125 -15.753906 13.910156 -13.160156 15.078125 -11.703125 C 16.253906 -10.242188 18.164062 -9.515625 20.8125 -9.515625 C 23.46875 -9.515625 25.382812 -10.242188 26.5625 -11.703125 C 27.738281 -13.160156 28.328125 -15.753906 28.328125 -19.484375 L 28.328125 -46.1875 Z M 38.859375 -46.1875 "/></g></g><g style="fill:#f18b27;fill-opacity:1;"><g transform="translate(75.595714, 50.229165)"><path style="stroke:none" d="M 3.359375 -46.1875 L 17.6875 -46.1875 C 22.019531 -46.1875 25.472656 -45.257812 28.046875 -43.40625 C 30.617188 -41.5625 31.90625 -38.570312 31.90625 -34.4375 C 31.90625 -29.800781 29.984375 -26.492188 26.140625 -24.515625 C 32.710938 -23.359375 36 -19.476562 36 -12.875 C 36 -8.988281 34.65625 -5.867188 31.96875 -3.515625 C 29.28125 -1.171875 25.582031 0 20.875 0 L 3.359375 0 Z M 13.890625 -28.109375 L 14.71875 -28.109375 C 17.070312 -28.109375 18.828125 -28.515625 19.984375 -29.328125 C 21.140625 -30.148438 21.71875 -31.492188 21.71875 -33.359375 C 21.71875 -36.492188 19.382812 -38.0625 14.71875 -38.0625 L 13.890625 -38.0625 Z M 13.890625 -8.125 L 17.1875 -8.125 C 22.332031 -8.125 24.90625 -9.835938 24.90625 -13.265625 C 24.90625 -15.316406 24.257812 -16.789062 22.96875 -17.6875 C 21.6875 -18.582031 19.757812 -19.03125 17.1875 -19.03125 L 13.890625 -19.03125 Z M 13.890625 -8.125 "/></g></g><g style="fill:#f18b27;fill-opacity:1;"><g transform="translate(109.065901, 50.229165)"><path style="stroke:none" d="M 26.8125 -46.1875 L 45.453125 0 L 34.15625 0 L 30.734375 -9.234375 L 13.15625 -9.234375 L 9.734375 0 L -1.5625 0 L 17.078125 -46.1875 Z M 27.15625 -18.46875 L 22 -31.90625 L 21.890625 -31.90625 L 16.734375 -18.46875 Z M 27.15625 -18.46875 "/></g></g><g style="fill:#f18b27;fill-opacity:1;"><g transform="translate(149.140771, 50.229165)"><path style="stroke:none" d="M 13.890625 -46.1875 L 13.890625 0 L 3.359375 0 L 3.359375 -46.1875 Z M 13.890625 -46.1875 "/></g></g><g style="fill:#019846;fill-opacity:1;"><g transform="translate(162.578009, 50.229165)"><path style="stroke:none" d=""/></g></g><g style="fill:#019846;fill-opacity:1;"><g transform="translate(174.051281, 50.229165)"><path style="stroke:none" d="M 20.328125 -38.125 C 18.828125 -38.125 17.394531 -37.382812 16.03125 -35.90625 C 14.675781 -34.4375 13.679688 -32.972656 13.046875 -31.515625 L 12.09375 -29.328125 L 3.296875 -33.59375 C 3.410156 -33.96875 3.597656 -34.453125 3.859375 -35.046875 C 4.117188 -35.640625 4.734375 -36.710938 5.703125 -38.265625 C 6.679688 -39.816406 7.753906 -41.175781 8.921875 -42.34375 C 10.097656 -43.519531 11.703125 -44.59375 13.734375 -45.5625 C 15.773438 -46.539062 17.972656 -47.03125 20.328125 -47.03125 C 23.347656 -47.03125 25.984375 -46.644531 28.234375 -45.875 C 30.492188 -45.113281 32.238281 -44.160156 33.46875 -43.015625 C 34.707031 -41.878906 35.707031 -40.535156 36.46875 -38.984375 C 37.238281 -37.441406 37.722656 -36.035156 37.921875 -34.765625 C 38.128906 -33.492188 38.234375 -32.171875 38.234375 -30.796875 C 38.234375 -28.773438 37.671875 -26.65625 36.546875 -24.4375 C 35.429688 -22.21875 34.082031 -20.238281 32.5 -18.5 C 30.914062 -16.769531 29.320312 -15.1875 27.71875 -13.75 C 26.113281 -12.3125 24.75 -11.195312 23.625 -10.40625 L 21.953125 -9.234375 L 39.078125 -9.234375 L 39.078125 0 L 3.078125 0 L 3.078125 -2.625 C 3.710938 -3.15625 4.570312 -3.875 5.65625 -4.78125 C 6.738281 -5.695312 8.640625 -7.441406 11.359375 -10.015625 C 14.085938 -12.597656 16.492188 -15.015625 18.578125 -17.265625 C 20.671875 -19.523438 22.578125 -21.941406 24.296875 -24.515625 C 26.015625 -27.097656 26.875 -29.191406 26.875 -30.796875 C 26.875 -31.429688 26.804688 -32.0625 26.671875 -32.6875 C 26.546875 -33.320312 26.296875 -34.097656 25.921875 -35.015625 C 25.546875 -35.929688 24.875 -36.675781 23.90625 -37.25 C 22.9375 -37.832031 21.742188 -38.125 20.328125 -38.125 Z M 20.328125 -38.125 "/></g></g><g style="fill:#019846;fill-opacity:1;"><g transform="translate(212.391017, 50.229165)"><path style="stroke:none" d="M 1.5625 -23.0625 C 1.5625 -30.675781 3.367188 -36.570312 6.984375 -40.75 C 10.609375 -44.9375 15.070312 -47.03125 20.375 -47.03125 C 25.675781 -47.03125 30.128906 -44.9375 33.734375 -40.75 C 37.335938 -36.570312 39.140625 -30.675781 39.140625 -23.0625 C 39.140625 -18.914062 38.632812 -15.273438 37.625 -12.140625 C 36.613281 -9.015625 35.222656 -6.523438 33.453125 -4.671875 C 31.679688 -2.828125 29.703125 -1.445312 27.515625 -0.53125 C 25.328125 0.382812 22.945312 0.84375 20.375 0.84375 C 17.800781 0.84375 15.421875 0.382812 13.234375 -0.53125 C 11.054688 -1.445312 9.070312 -2.828125 7.28125 -4.671875 C 5.488281 -6.523438 4.085938 -9.015625 3.078125 -12.140625 C 2.066406 -15.273438 1.5625 -18.914062 1.5625 -23.0625 Z M 12.203125 -23.0625 C 12.203125 -18.175781 12.910156 -14.507812 14.328125 -12.0625 C 15.742188 -9.613281 17.757812 -8.390625 20.375 -8.390625 C 22.945312 -8.390625 24.941406 -9.613281 26.359375 -12.0625 C 27.785156 -14.507812 28.5 -18.175781 28.5 -23.0625 C 28.5 -27.726562 27.78125 -31.347656 26.34375 -33.921875 C 24.90625 -36.503906 22.914062 -37.796875 20.375 -37.796875 C 17.84375 -37.796875 15.847656 -36.492188 14.390625 -33.890625 C 12.929688 -31.296875 12.203125 -27.6875 12.203125 -23.0625 Z M 12.203125 -23.0625 "/></g></g><g style="fill:#019846;fill-opacity:1;"><g transform="translate(249.275493, 50.229165)"><path style="stroke:none" d="M 20.328125 -38.125 C 18.828125 -38.125 17.394531 -37.382812 16.03125 -35.90625 C 14.675781 -34.4375 13.679688 -32.972656 13.046875 -31.515625 L 12.09375 -29.328125 L 3.296875 -33.59375 C 3.410156 -33.96875 3.597656 -34.453125 3.859375 -35.046875 C 4.117188 -35.640625 4.734375 -36.710938 5.703125 -38.265625 C 6.679688 -39.816406 7.753906 -41.175781 8.921875 -42.34375 C 10.097656 -43.519531 11.703125 -44.59375 13.734375 -45.5625 C 15.773438 -46.539062 17.972656 -47.03125 20.328125 -47.03125 C 23.347656 -47.03125 25.984375 -46.644531 28.234375 -45.875 C 30.492188 -45.113281 32.238281 -44.160156 33.46875 -43.015625 C 34.707031 -41.878906 35.707031 -40.535156 36.46875 -38.984375 C 37.238281 -37.441406 37.722656 -36.035156 37.921875 -34.765625 C 38.128906 -33.492188 38.234375 -32.171875 38.234375 -30.796875 C 38.234375 -28.773438 37.671875 -26.65625 36.546875 -24.4375 C 35.429688 -22.21875 34.082031 -20.238281 32.5 -18.5 C 30.914062 -16.769531 29.320312 -15.1875 27.71875 -13.75 C 26.113281 -12.3125 24.75 -11.195312 23.625 -10.40625 L 21.953125 -9.234375 L 39.078125 -9.234375 L 39.078125 0 L 3.078125 0 L 3.078125 -2.625 C 3.710938 -3.15625 4.570312 -3.875 5.65625 -4.78125 C 6.738281 -5.695312 8.640625 -7.441406 11.359375 -10.015625 C 14.085938 -12.597656 16.492188 -15.015625 18.578125 -17.265625 C 20.671875 -19.523438 22.578125 -21.941406 24.296875 -24.515625 C 26.015625 -27.097656 26.875 -29.191406 26.875 -30.796875 C 26.875 -31.429688 26.804688 -32.0625 26.671875 -32.6875 C 26.546875 -33.320312 26.296875 -34.097656 25.921875 -35.015625 C 25.546875 -35.929688 24.875 -36.675781 23.90625 -37.25 C 22.9375 -37.832031 21.742188 -38.125 20.328125 -38.125 Z M 20.328125 -38.125 "/></g></g><g style="fill:#019846;fill-opacity:1;"><g transform="translate(287.61523, 50.229165)"><path style="stroke:none" d="M 1 -9.1875 L 9.34375 -13.21875 C 10.394531 -9.707031 13.101562 -7.953125 17.46875 -7.953125 C 19.375 -7.953125 20.953125 -8.582031 22.203125 -9.84375 C 23.453125 -11.113281 24.078125 -12.71875 24.078125 -14.65625 C 24.078125 -16.601562 23.46875 -18.203125 22.25 -19.453125 C 21.039062 -20.703125 19.585938 -21.566406 17.890625 -22.046875 C 16.191406 -22.535156 14.257812 -22.78125 12.09375 -22.78125 C 9.03125 -22.78125 6.398438 -22.296875 4.203125 -21.328125 L 8.0625 -46.1875 L 31.625 -46.1875 L 31.625 -36.953125 L 17.078125 -36.953125 L 16.0625 -30.515625 C 16.175781 -30.515625 16.378906 -30.519531 16.671875 -30.53125 C 16.972656 -30.550781 17.203125 -30.5625 17.359375 -30.5625 C 19.703125 -30.5625 21.835938 -30.300781 23.765625 -29.78125 C 25.691406 -29.257812 27.503906 -28.421875 29.203125 -27.265625 C 30.898438 -26.109375 32.222656 -24.425781 33.171875 -22.21875 C 34.117188 -20.019531 34.59375 -17.390625 34.59375 -14.328125 C 34.59375 -9.921875 32.976562 -6.289062 29.75 -3.4375 C 26.519531 -0.582031 22.425781 0.84375 17.46875 0.84375 C 12.945312 0.84375 9.320312 -0.132812 6.59375 -2.09375 C 3.875 -4.050781 2.007812 -6.414062 1 -9.1875 Z M 1 -9.1875 "/></g></g></g></g><g clip-rule="nonzero" clip-path="url(#d8f435e4d2)"><path style=" stroke:none;fill-rule:nonzero;fill:#ffffff;fill-opacity:1;" d="M 94.632812 201.425781 L 76.992188 201.425781 L 76.992188 187.878906 L 79.085938 187.878906 L 79.085938 173.785156 L 80.992188 173.785156 L 80.992188 157.148438 L 83.085938 157.148438 L 83.085938 138.871094 L 84.355469 138.871094 L 84.355469 131.6875 L 85.359375 131.6875 L 85.359375 123.777344 L 87.539062 123.777344 L 87.539062 135.234375 L 88.722656 135.234375 L 88.722656 145.507812 L 90.085938 145.507812 L 90.085938 161.328125 L 91.632812 161.328125 L 91.632812 178.152344 L 93.085938 178.152344 L 93.085938 190.152344 L 94.722656 190.152344 L 94.632812 201.425781 "/></g><g clip-rule="nonzero" clip-path="url(#eff660139a)"><path style=" stroke:none;fill-rule:nonzero;fill:#f18b27;fill-opacity:1;" d="M 85.140625 201.425781 L 85.945312 201.425781 L 85.945312 138.929688 L 85.140625 138.929688 Z M 90.078125 145.53125 L 88.898438 145.53125 L 88.898438 135.144531 L 87.339844 135.144531 L 87.339844 123.769531 L 86.535156 123.769531 L 86.535156 201.425781 L 87.339844 201.425781 L 87.339844 145.738281 L 88.222656 145.738281 L 88.222656 161.332031 L 88.226562 161.332031 L 88.226562 201.425781 L 88.769531 201.425781 L 88.769531 161.332031 L 89.535156 161.332031 L 89.535156 201.425781 L 90.082031 201.425781 L 90.082031 161.320312 L 90.078125 161.320312 Z M 91.632812 161.320312 L 90.085938 161.320312 L 90.085938 190.179688 L 91.21875 190.179688 L 91.21875 201.425781 L 91.863281 201.425781 L 91.863281 190.179688 L 91.632812 190.179688 L 91.632812 190.15625 L 93.078125 190.15625 L 93.078125 178.144531 L 91.632812 178.144531 Z M 83.46875 201.425781 L 84.011719 201.425781 L 84.011719 157.230469 L 83.46875 157.230469 Z M 80.886719 201.425781 L 81.839844 201.425781 L 81.839844 173.785156 L 80.886719 173.785156 Z M 94.09375 190.179688 L 94.09375 201.425781 L 94.738281 201.425781 L 94.738281 190.179688 Z M 78.792969 187.882812 L 79.746094 187.882812 L 79.746094 201.425781 L 78.792969 201.425781 L 78.792969 187.882812 "/></g><g clip-rule="nonzero" clip-path="url(#5fe27b22f4)"><path style=" stroke:none;fill-rule:nonzero;fill:#95cd9b;fill-opacity:1;" d="M 86.089844 104.726562 L 85.816406 123.753906 L 86.949219 123.753906 L 86.675781 104.726562 Z M 88.222656 152.085938 L 87.339844 152.085938 L 87.339844 154.429688 L 88.222656 154.429688 Z M 85.949219 154.429688 L 86.523438 154.429688 L 86.523438 152.085938 L 85.949219 152.085938 Z M 88.765625 169.261719 L 89.542969 169.261719 L 89.542969 166.914062 L 88.765625 166.914062 Z M 88.21875 169.261719 L 88.21875 166.914062 L 87.339844 166.914062 L 87.339844 169.261719 Z M 85.953125 169.261719 L 86.539062 169.261719 L 86.539062 166.914062 L 85.953125 166.914062 Z M 84.019531 169.261719 L 85.140625 169.261719 L 85.140625 166.914062 L 84.019531 166.914062 Z M 91.195312 180.144531 L 90.539062 180.144531 L 90.539062 182.765625 L 91.195312 182.765625 Z M 88.769531 182.765625 L 89.539062 182.765625 L 89.539062 180.144531 L 88.769531 180.144531 Z M 87.335938 182.765625 L 88.238281 182.765625 L 88.238281 180.144531 L 87.335938 180.144531 Z M 86.539062 180.144531 L 85.949219 180.144531 L 85.949219 182.765625 L 86.539062 182.765625 Z M 84.015625 182.765625 L 85.136719 182.765625 L 85.136719 180.144531 L 84.015625 180.144531 Z M 83.464844 180.144531 L 81.84375 180.144531 L 81.84375 182.765625 L 83.464844 182.765625 Z M 81.847656 195.515625 L 83.464844 195.515625 L 83.464844 192.898438 L 81.847656 192.898438 Z M 91.871094 192.898438 L 91.871094 195.515625 L 94.101562 195.515625 L 94.101562 192.898438 Z M 90.082031 195.515625 L 91.21875 195.515625 L 91.21875 192.898438 L 90.082031 192.898438 Z M 88.777344 195.515625 L 89.539062 195.515625 L 89.539062 192.898438 L 88.777344 192.898438 Z M 87.34375 195.515625 L 88.230469 195.515625 L 88.230469 192.898438 L 87.34375 192.898438 Z M 85.945312 195.515625 L 86.539062 195.515625 L 86.539062 192.898438 L 85.945312 192.898438 Z M 84.015625 195.515625 L 85.136719 195.515625 L 85.136719 192.898438 L 84.015625 192.898438 Z M 79.75 195.515625 L 80.886719 195.515625 L 80.886719 192.898438 L 79.75 192.898438 Z M 77.007812 195.515625 L 78.796875 195.515625 L 78.796875 192.898438 L 77.007812 192.898438 Z M 79.089844 182.765625 L 80.886719 182.765625 L 80.886719 180.144531 L 79.089844 180.144531 Z M 80.996094 169.261719 L 83.46875 169.261719 L 83.46875 166.914062 L 80.996094 166.914062 Z M 85.132812 154.429688 L 85.132812 152.085938 L 83.097656 152.085938 L 83.097656 154.429688 Z M 86.53125 139.238281 L 85.949219 139.238281 L 85.949219 141.308594 L 86.53125 141.308594 Z M 85.136719 141.308594 L 83.085938 141.308594 L 83.085938 139.238281 L 85.136719 139.238281 L 85.136719 141.308594 "/></g><g clip-rule="nonzero" clip-path="url(#53352a9383)"><path style=" stroke:none;fill-rule:nonzero;fill:#019846;fill-opacity:1;" d="M 90.074219 152.085938 L 88.210938 152.085938 L 88.210938 154.429688 L 90.074219 154.429688 Z M 86.535156 154.429688 L 87.34375 154.429688 L 87.34375 152.085938 L 86.535156 152.085938 Z M 89.542969 169.261719 L 91.640625 169.261719 L 91.640625 166.914062 L 89.542969 166.914062 Z M 88.222656 169.261719 L 88.777344 169.261719 L 88.777344 166.914062 L 88.222656 166.914062 Z M 86.539062 169.261719 L 87.34375 169.261719 L 87.34375 166.914062 L 86.539062 166.914062 Z M 85.140625 169.261719 L 85.949219 169.261719 L 85.949219 166.914062 L 85.140625 166.914062 Z M 91.195312 182.765625 L 93.082031 182.765625 L 93.082031 180.144531 L 91.195312 180.144531 Z M 89.542969 182.765625 L 90.550781 182.765625 L 90.550781 180.144531 L 89.542969 180.144531 Z M 88.226562 182.765625 L 88.777344 182.765625 L 88.777344 180.144531 L 88.226562 180.144531 Z M 87.339844 180.144531 L 86.535156 180.144531 L 86.535156 182.765625 L 87.339844 182.765625 Z M 85.140625 182.765625 L 85.949219 182.765625 L 85.949219 180.144531 L 85.140625 180.144531 Z M 83.472656 182.765625 L 84.015625 182.765625 L 84.015625 180.144531 L 83.472656 180.144531 Z M 83.464844 195.515625 L 84.007812 195.515625 L 84.007812 192.898438 L 83.464844 192.898438 Z M 94.101562 192.898438 L 94.101562 195.515625 L 94.738281 195.515625 L 94.738281 192.898438 Z M 91.21875 195.515625 L 91.859375 195.515625 L 91.859375 192.898438 L 91.21875 192.898438 Z M 89.535156 195.515625 L 90.085938 195.515625 L 90.085938 192.898438 L 89.535156 192.898438 Z M 88.226562 195.515625 L 88.773438 195.515625 L 88.773438 192.898438 L 88.226562 192.898438 Z M 86.535156 195.515625 L 87.339844 195.515625 L 87.339844 192.898438 L 86.535156 192.898438 Z M 85.140625 195.515625 L 85.945312 195.515625 L 85.945312 192.898438 L 85.140625 192.898438 Z M 80.894531 195.515625 L 81.835938 195.515625 L 81.835938 192.898438 L 80.894531 192.898438 Z M 78.792969 195.515625 L 79.742188 195.515625 L 79.742188 192.898438 L 78.792969 192.898438 Z M 80.894531 182.765625 L 81.839844 182.765625 L 81.839844 180.144531 L 80.894531 180.144531 Z M 83.472656 169.261719 L 84.023438 169.261719 L 84.023438 166.914062 L 83.472656 166.914062 Z M 85.128906 154.429688 L 85.964844 154.429688 L 85.964844 152.085938 L 85.128906 152.085938 Z M 88.894531 139.238281 L 86.53125 139.238281 L 86.53125 141.308594 L 88.894531 141.308594 Z M 85.949219 141.308594 L 85.136719 141.308594 L 85.136719 139.238281 L 85.949219 139.238281 L 85.949219 141.308594 "/></g><g clip-rule="nonzero" clip-path="url(#07dfddfe1d)"><path style=" stroke:none;fill-rule:nonzero;fill:#ffffff;fill-opacity:1;" d="M 86.949219 123.753906 L 86.683594 123.753906 L 86.410156 104.726562 L 86.675781 104.726562 L 86.949219 123.753906 "/></g><g transform="matrix(1,0,0,1,110,116)"><g clip-path="url(#b6817f5fb0)"><g style="fill:#ffffff;fill-opacity:1;"><g transform="translate(0.394511, 18.63634)"><path style="stroke:none" d="M 1.421875 0 L 1.421875 -11.90625 L 3.71875 -11.90625 L 7.96875 -5.734375 L 12.1875 -11.90625 L 14.46875 -11.90625 L 14.46875 0 L 11.78125 0 L 11.78125 -7.15625 L 8.875 -2.9375 L 7.015625 -2.9375 L 4.125 -7.1875 L 4.125 0 Z M 1.421875 0 "/></g></g><g style="fill:#ffffff;fill-opacity:1;"><g transform="translate(14.841877, 18.63634)"><path style="stroke:none" d="M 7.078125 0.234375 C 5.835938 0.234375 4.738281 -0.0234375 3.78125 -0.546875 C 2.820312 -1.078125 2.070312 -1.804688 1.53125 -2.734375 C 1 -3.671875 0.734375 -4.742188 0.734375 -5.953125 C 0.734375 -7.171875 1 -8.242188 1.53125 -9.171875 C 2.070312 -10.097656 2.820312 -10.828125 3.78125 -11.359375 C 4.738281 -11.890625 5.835938 -12.15625 7.078125 -12.15625 C 8.328125 -12.15625 9.425781 -11.890625 10.375 -11.359375 C 11.332031 -10.828125 12.082031 -10.097656 12.625 -9.171875 C 13.164062 -8.242188 13.4375 -7.171875 13.4375 -5.953125 C 13.4375 -4.742188 13.164062 -3.671875 12.625 -2.734375 C 12.082031 -1.804688 11.332031 -1.078125 10.375 -0.546875 C 9.425781 -0.0234375 8.328125 0.234375 7.078125 0.234375 Z M 3.484375 -5.953125 C 3.484375 -5.242188 3.632812 -4.613281 3.9375 -4.0625 C 4.25 -3.519531 4.675781 -3.09375 5.21875 -2.78125 C 5.757812 -2.476562 6.378906 -2.328125 7.078125 -2.328125 C 7.796875 -2.328125 8.421875 -2.476562 8.953125 -2.78125 C 9.492188 -3.09375 9.914062 -3.519531 10.21875 -4.0625 C 10.519531 -4.613281 10.671875 -5.242188 10.671875 -5.953125 C 10.671875 -6.671875 10.519531 -7.300781 10.21875 -7.84375 C 9.914062 -8.382812 9.492188 -8.804688 8.953125 -9.109375 C 8.421875 -9.421875 7.796875 -9.578125 7.078125 -9.578125 C 6.378906 -9.578125 5.757812 -9.421875 5.21875 -9.109375 C 4.675781 -8.804688 4.25 -8.382812 3.9375 -7.84375 C 3.632812 -7.300781 3.484375 -6.671875 3.484375 -5.953125 Z M 3.484375 -5.953125 "/></g></g><g style="fill:#ffffff;fill-opacity:1;"><g transform="translate(27.570463, 18.63634)"><path style="stroke:none" d="M 4.734375 0 L 0.15625 -11.90625 L 3.0625 -11.90625 L 4.640625 -7.671875 L 6.078125 -3.890625 L 9.0625 -11.90625 L 11.96875 -11.90625 L 7.390625 0 Z M 4.734375 0 "/></g></g><g style="fill:#ffffff;fill-opacity:1;"><g transform="translate(38.239916, 18.63634)"><path style="stroke:none" d="M 1.421875 0 L 1.421875 -11.90625 L 9.25 -11.90625 L 9.25 -9.625 L 4.125 -9.625 L 4.125 -7.15625 L 8.796875 -7.15625 L 8.796875 -4.90625 L 4.125 -4.90625 L 4.125 -2.296875 L 9.4375 -2.296875 L 9.4375 0 Z M 1.421875 0 "/></g></g><g style="fill:#ffffff;fill-opacity:1;"><g transform="translate(47.105492, 18.63634)"><path style="stroke:none" d="M 1.421875 0 L 1.421875 -11.90625 L 6.515625 -11.90625 C 7.421875 -11.90625 8.207031 -11.738281 8.875 -11.40625 C 9.550781 -11.082031 10.066406 -10.613281 10.421875 -10 C 10.785156 -9.394531 10.96875 -8.664062 10.96875 -7.8125 C 10.96875 -6.9375 10.769531 -6.179688 10.375 -5.546875 C 9.976562 -4.921875 9.425781 -4.453125 8.71875 -4.140625 L 11.171875 0 L 8.046875 0 L 5.921875 -3.703125 L 4.140625 -3.703125 L 4.140625 0 Z M 4.09375 -5.984375 L 6.15625 -5.984375 C 6.820312 -5.984375 7.332031 -6.140625 7.6875 -6.453125 C 8.050781 -6.765625 8.234375 -7.210938 8.234375 -7.796875 C 8.234375 -8.367188 8.050781 -8.8125 7.6875 -9.125 C 7.332031 -9.4375 6.820312 -9.59375 6.15625 -9.59375 L 4.09375 -9.59375 Z M 4.09375 -5.984375 "/></g></g><g style="fill:#ffffff;fill-opacity:1;"><g transform="translate(57.6388, 18.63634)"><path style="stroke:none" d="M 5.578125 0.234375 C 4.578125 0.234375 3.71875 0.0703125 3 -0.25 C 2.28125 -0.582031 1.722656 -1.050781 1.328125 -1.65625 C 0.941406 -2.257812 0.75 -2.972656 0.75 -3.796875 L 3.40625 -3.796875 C 3.40625 -3.222656 3.597656 -2.773438 3.984375 -2.453125 C 4.378906 -2.140625 4.90625 -1.984375 5.5625 -1.984375 C 6.132812 -1.984375 6.582031 -2.09375 6.90625 -2.3125 C 7.238281 -2.539062 7.40625 -2.851562 7.40625 -3.25 C 7.40625 -3.664062 7.203125 -4.003906 6.796875 -4.265625 C 6.398438 -4.523438 5.785156 -4.75 4.953125 -4.9375 C 3.554688 -5.226562 2.519531 -5.675781 1.84375 -6.28125 C 1.175781 -6.882812 0.84375 -7.664062 0.84375 -8.625 C 0.84375 -9.71875 1.238281 -10.578125 2.03125 -11.203125 C 2.832031 -11.835938 3.921875 -12.15625 5.296875 -12.15625 C 6.234375 -12.15625 7.046875 -11.988281 7.734375 -11.65625 C 8.429688 -11.332031 8.96875 -10.878906 9.34375 -10.296875 C 9.726562 -9.710938 9.921875 -9.019531 9.921875 -8.21875 L 7.3125 -8.21875 C 7.3125 -8.75 7.132812 -9.164062 6.78125 -9.46875 C 6.4375 -9.78125 5.953125 -9.9375 5.328125 -9.9375 C 4.753906 -9.9375 4.300781 -9.828125 3.96875 -9.609375 C 3.644531 -9.390625 3.484375 -9.078125 3.484375 -8.671875 C 3.484375 -8.316406 3.664062 -8.015625 4.03125 -7.765625 C 4.394531 -7.515625 5.03125 -7.28125 5.9375 -7.0625 C 7.425781 -6.707031 8.5 -6.234375 9.15625 -5.640625 C 9.8125 -5.054688 10.140625 -4.296875 10.140625 -3.359375 C 10.140625 -2.234375 9.734375 -1.351562 8.921875 -0.71875 C 8.109375 -0.0820312 6.992188 0.234375 5.578125 0.234375 Z M 5.578125 0.234375 "/></g></g><g style="fill:#ffffff;fill-opacity:1;"><g transform="translate(67.099999, 18.63634)"><path style="stroke:none" d=""/></g></g><g style="fill:#ffffff;fill-opacity:1;"><g transform="translate(69.652029, 18.63634)"><path style="stroke:none" d="M 1.421875 0 L 1.421875 -11.90625 L 8.90625 -11.90625 L 8.90625 -9.453125 L 4.140625 -9.453125 L 4.140625 -6.484375 L 8.453125 -6.484375 L 8.453125 -4.09375 L 4.140625 -4.09375 L 4.140625 0 Z M 1.421875 0 "/></g></g><g style="fill:#ffffff;fill-opacity:1;"><g transform="translate(77.853916, 18.63634)"><path style="stroke:none" d="M 1.421875 0 L 1.421875 -11.90625 L 9.25 -11.90625 L 9.25 -9.625 L 4.125 -9.625 L 4.125 -7.15625 L 8.796875 -7.15625 L 8.796875 -4.90625 L 4.125 -4.90625 L 4.125 -2.296875 L 9.4375 -2.296875 L 9.4375 0 Z M 1.421875 0 "/></g></g><g style="fill:#ffffff;fill-opacity:1;"><g transform="translate(86.719492, 18.63634)"><path style="stroke:none" d="M 1.421875 0 L 1.421875 -11.90625 L 6.140625 -11.90625 C 7.398438 -11.90625 8.5 -11.65625 9.4375 -11.15625 C 10.382812 -10.65625 11.117188 -9.957031 11.640625 -9.0625 C 12.160156 -8.164062 12.421875 -7.128906 12.421875 -5.953125 C 12.421875 -4.765625 12.160156 -3.722656 11.640625 -2.828125 C 11.117188 -1.941406 10.382812 -1.25 9.4375 -0.75 C 8.5 -0.25 7.398438 0 6.140625 0 Z M 4.140625 -2.484375 L 6.09375 -2.484375 C 6.789062 -2.484375 7.40625 -2.628906 7.9375 -2.921875 C 8.476562 -3.210938 8.894531 -3.617188 9.1875 -4.140625 C 9.488281 -4.660156 9.640625 -5.265625 9.640625 -5.953125 C 9.640625 -6.660156 9.488281 -7.269531 9.1875 -7.78125 C 8.894531 -8.300781 8.476562 -8.703125 7.9375 -8.984375 C 7.394531 -9.273438 6.769531 -9.421875 6.0625 -9.421875 L 4.140625 -9.421875 Z M 4.140625 -2.484375 "/></g></g><g style="fill:#ffffff;fill-opacity:1;"><g transform="translate(98.409997, 18.63634)"><path style="stroke:none" d="M 1.421875 0 L 1.421875 -11.90625 L 9.25 -11.90625 L 9.25 -9.625 L 4.125 -9.625 L 4.125 -7.15625 L 8.796875 -7.15625 L 8.796875 -4.90625 L 4.125 -4.90625 L 4.125 -2.296875 L 9.4375 -2.296875 L 9.4375 0 Z M 1.421875 0 "/></g></g><g style="fill:#ffffff;fill-opacity:1;"><g transform="translate(107.275573, 18.63634)"><path style="stroke:none" d="M 1.421875 0 L 1.421875 -11.90625 L 6.515625 -11.90625 C 7.421875 -11.90625 8.207031 -11.738281 8.875 -11.40625 C 9.550781 -11.082031 10.066406 -10.613281 10.421875 -10 C 10.785156 -9.394531 10.96875 -8.664062 10.96875 -7.8125 C 10.96875 -6.9375 10.769531 -6.179688 10.375 -5.546875 C 9.976562 -4.921875 9.425781 -4.453125 8.71875 -4.140625 L 11.171875 0 L 8.046875 0 L 5.921875 -3.703125 L 4.140625 -3.703125 L 4.140625 0 Z M 4.09375 -5.984375 L 6.15625 -5.984375 C 6.820312 -5.984375 7.332031 -6.140625 7.6875 -6.453125 C 8.050781 -6.765625 8.234375 -7.210938 8.234375 -7.796875 C 8.234375 -8.367188 8.050781 -8.8125 7.6875 -9.125 C 7.332031 -9.4375 6.820312 -9.59375 6.15625 -9.59375 L 4.09375 -9.59375 Z M 4.09375 -5.984375 "/></g></g><g style="fill:#ffffff;fill-opacity:1;"><g transform="translate(117.808881, 18.63634)"><path style="stroke:none" d="M 0.15625 0 L 4.890625 -11.90625 L 7.53125 -11.90625 L 12.265625 0 L 9.375 0 L 8.578125 -2.0625 L 3.84375 -2.0625 L 3.046875 0 Z M 4.546875 -4.1875 L 7.890625 -4.1875 L 6.203125 -8.546875 Z M 4.546875 -4.1875 "/></g></g><g style="fill:#ffffff;fill-opacity:1;"><g transform="translate(128.784649, 18.63634)"><path style="stroke:none" d="M 4.28125 0 L 4.28125 -9.375 L 0.515625 -9.375 L 0.515625 -11.90625 L 10.765625 -11.90625 L 10.765625 -9.375 L 7 -9.375 L 7 0 Z M 4.28125 0 "/></g></g><g style="fill:#ffffff;fill-opacity:1;"><g transform="translate(138.62023, 18.63634)"><path style="stroke:none" d="M 1.421875 0 L 1.421875 -11.90625 L 4.140625 -11.90625 L 4.140625 0 Z M 1.421875 0 "/></g></g><g style="fill:#ffffff;fill-opacity:1;"><g transform="translate(142.737887, 18.63634)"><path style="stroke:none" d="M 7.078125 0.234375 C 5.835938 0.234375 4.738281 -0.0234375 3.78125 -0.546875 C 2.820312 -1.078125 2.070312 -1.804688 1.53125 -2.734375 C 1 -3.671875 0.734375 -4.742188 0.734375 -5.953125 C 0.734375 -7.171875 1 -8.242188 1.53125 -9.171875 C 2.070312 -10.097656 2.820312 -10.828125 3.78125 -11.359375 C 4.738281 -11.890625 5.835938 -12.15625 7.078125 -12.15625 C 8.328125 -12.15625 9.425781 -11.890625 10.375 -11.359375 C 11.332031 -10.828125 12.082031 -10.097656 12.625 -9.171875 C 13.164062 -8.242188 13.4375 -7.171875 13.4375 -5.953125 C 13.4375 -4.742188 13.164062 -3.671875 12.625 -2.734375 C 12.082031 -1.804688 11.332031 -1.078125 10.375 -0.546875 C 9.425781 -0.0234375 8.328125 0.234375 7.078125 0.234375 Z M 3.484375 -5.953125 C 3.484375 -5.242188 3.632812 -4.613281 3.9375 -4.0625 C 4.25 -3.519531 4.675781 -3.09375 5.21875 -2.78125 C 5.757812 -2.476562 6.378906 -2.328125 7.078125 -2.328125 C 7.796875 -2.328125 8.421875 -2.476562 8.953125 -2.78125 C 9.492188 -3.09375 9.914062 -3.519531 10.21875 -4.0625 C 10.519531 -4.613281 10.671875 -5.242188 10.671875 -5.953125 C 10.671875 -6.671875 10.519531 -7.300781 10.21875 -7.84375 C 9.914062 -8.382812 9.492188 -8.804688 8.953125 -9.109375 C 8.421875 -9.421875 7.796875 -9.578125 7.078125 -9.578125 C 6.378906 -9.578125 5.757812 -9.421875 5.21875 -9.109375 C 4.675781 -8.804688 4.25 -8.382812 3.9375 -7.84375 C 3.632812 -7.300781 3.484375 -6.671875 3.484375 -5.953125 Z M 3.484375 -5.953125 "/></g></g><g style="fill:#ffffff;fill-opacity:1;"><g transform="translate(155.466473, 18.63634)"><path style="stroke:none" d="M 1.421875 0 L 1.421875 -11.90625 L 3.71875 -11.90625 L 8.984375 -4.65625 L 8.984375 -11.90625 L 11.671875 -11.90625 L 11.671875 0 L 9.375 0 L 4.125 -7.296875 L 4.125 0 Z M 1.421875 0 "/></g></g><g style="fill:#ffffff;fill-opacity:1;"><g transform="translate(167.122949, 18.63634)"><path style="stroke:none" d=""/></g></g><g style="fill:#ffffff;fill-opacity:1;"><g transform="translate(169.67497, 18.63634)"><path style="stroke:none" d="M 7.078125 0.234375 C 5.835938 0.234375 4.738281 -0.0234375 3.78125 -0.546875 C 2.820312 -1.078125 2.070312 -1.804688 1.53125 -2.734375 C 1 -3.671875 0.734375 -4.742188 0.734375 -5.953125 C 0.734375 -7.171875 1 -8.242188 1.53125 -9.171875 C 2.070312 -10.097656 2.820312 -10.828125 3.78125 -11.359375 C 4.738281 -11.890625 5.835938 -12.15625 7.078125 -12.15625 C 8.328125 -12.15625 9.425781 -11.890625 10.375 -11.359375 C 11.332031 -10.828125 12.082031 -10.097656 12.625 -9.171875 C 13.164062 -8.242188 13.4375 -7.171875 13.4375 -5.953125 C 13.4375 -4.742188 13.164062 -3.671875 12.625 -2.734375 C 12.082031 -1.804688 11.332031 -1.078125 10.375 -0.546875 C 9.425781 -0.0234375 8.328125 0.234375 7.078125 0.234375 Z M 3.484375 -5.953125 C 3.484375 -5.242188 3.632812 -4.613281 3.9375 -4.0625 C 4.25 -3.519531 4.675781 -3.09375 5.21875 -2.78125 C 5.757812 -2.476562 6.378906 -2.328125 7.078125 -2.328125 C 7.796875 -2.328125 8.421875 -2.476562 8.953125 -2.78125 C 9.492188 -3.09375 9.914062 -3.519531 10.21875 -4.0625 C 10.519531 -4.613281 10.671875 -5.242188 10.671875 -5.953125 C 10.671875 -6.671875 10.519531 -7.300781 10.21875 -7.84375 C 9.914062 -8.382812 9.492188 -8.804688 8.953125 -9.109375 C 8.421875 -9.421875 7.796875 -9.578125 7.078125 -9.578125 C 6.378906 -9.578125 5.757812 -9.421875 5.21875 -9.109375 C 4.675781 -8.804688 4.25 -8.382812 3.9375 -7.84375 C 3.632812 -7.300781 3.484375 -6.671875 3.484375 -5.953125 Z M 3.484375 -5.953125 "/></g></g><g style="fill:#ffffff;fill-opacity:1;"><g transform="translate(182.403576, 18.63634)"><path style="stroke:none" d="M 1.421875 0 L 1.421875 -11.90625 L 8.90625 -11.90625 L 8.90625 -9.453125 L 4.140625 -9.453125 L 4.140625 -6.484375 L 8.453125 -6.484375 L 8.453125 -4.09375 L 4.140625 -4.09375 L 4.140625 0 Z M 1.421875 0 "/></g></g><g style="fill:#ffffff;fill-opacity:1;"><g transform="translate(190.605453, 18.63634)"><path style="stroke:none" d=""/></g></g><g style="fill:#ffffff;fill-opacity:1;"><g transform="translate(193.157473, 18.63634)"><path style="stroke:none" d="M 1.421875 0 L 1.421875 -11.90625 L 4.140625 -11.90625 L 4.140625 0 Z M 1.421875 0 "/></g></g><g style="fill:#ffffff;fill-opacity:1;"><g transform="translate(197.275141, 18.63634)"><path style="stroke:none" d="M 1.421875 0 L 1.421875 -11.90625 L 3.71875 -11.90625 L 8.984375 -4.65625 L 8.984375 -11.90625 L 11.671875 -11.90625 L 11.671875 0 L 9.375 0 L 4.125 -7.296875 L 4.125 0 Z M 1.421875 0 "/></g></g><g style="fill:#ffffff;fill-opacity:1;"><g transform="translate(208.931617, 18.63634)"><path style="stroke:none" d="M 1.421875 0 L 1.421875 -11.90625 L 6.140625 -11.90625 C 7.398438 -11.90625 8.5 -11.65625 9.4375 -11.15625 C 10.382812 -10.65625 11.117188 -9.957031 11.640625 -9.0625 C 12.160156 -8.164062 12.421875 -7.128906 12.421875 -5.953125 C 12.421875 -4.765625 12.160156 -3.722656 11.640625 -2.828125 C 11.117188 -1.941406 10.382812 -1.25 9.4375 -0.75 C 8.5 -0.25 7.398438 0 6.140625 0 Z M 4.140625 -2.484375 L 6.09375 -2.484375 C 6.789062 -2.484375 7.40625 -2.628906 7.9375 -2.921875 C 8.476562 -3.210938 8.894531 -3.617188 9.1875 -4.140625 C 9.488281 -4.660156 9.640625 -5.265625 9.640625 -5.953125 C 9.640625 -6.660156 9.488281 -7.269531 9.1875 -7.78125 C 8.894531 -8.300781 8.476562 -8.703125 7.9375 -8.984375 C 7.394531 -9.273438 6.769531 -9.421875 6.0625 -9.421875 L 4.140625 -9.421875 Z M 4.140625 -2.484375 "/></g></g><g style="fill:#ffffff;fill-opacity:1;"><g transform="translate(220.622111, 18.63634)"><path style="stroke:none" d="M 1.421875 0 L 1.421875 -11.90625 L 4.140625 -11.90625 L 4.140625 0 Z M 1.421875 0 "/></g></g><g clip-rule="nonzero" clip-path="url(#a2fd6fb3f0)"><g style="fill:#ffffff;fill-opacity:1;"><g transform="translate(224.739779, 18.63634)"><path style="stroke:none" d="M 0.15625 0 L 4.890625 -11.90625 L 7.53125 -11.90625 L 12.265625 0 L 9.375 0 L 8.578125 -2.0625 L 3.84375 -2.0625 L 3.046875 0 Z M 4.546875 -4.1875 L 7.890625 -4.1875 L 6.203125 -8.546875 Z M 4.546875 -4.1875 "/></g></g></g></g></g></g></svg>